<svg width="100" height="95" viewBox="0 0 100 95" fill="none" xmlns="http://www.w3.org/2000/svg">
<path d="M33.4476 76.0547C33.4476 76.4453 32.9839 76.7578 32.3992 76.7578C31.7339 76.8164 31.2702 76.5039 31.2702 76.0547C31.2702 75.6641 31.7339 75.3516 32.3186 75.3516C32.9234 75.293 33.4476 75.6055 33.4476 76.0547ZM27.1774 75.1758C27.0363 75.5664 27.4395 76.0156 28.0444 76.1328C28.5686 76.3281 29.1734 76.1328 29.2944 75.7422C29.4153 75.3516 29.0323 74.9023 28.4274 74.7266C27.9032 74.5898 27.3186 74.7852 27.1774 75.1758ZM36.0887 74.8437C35.504 74.9805 35.1008 75.3516 35.1613 75.8008C35.2218 76.1914 35.746 76.4453 36.3508 76.3086C36.9355 76.1719 37.3387 75.8008 37.2782 75.4102C37.2177 75.0391 36.6734 74.7852 36.0887 74.8437ZM49.3548 0C21.3911 0 0 20.5664 0 47.6563C0 69.3164 14.0726 87.8516 34.1734 94.375C36.754 94.8242 37.6613 93.2813 37.6613 92.0117C37.6613 90.8008 37.6008 84.1211 37.6008 80.0195C37.6008 80.0195 23.4879 82.9492 20.5242 74.1992C20.5242 74.1992 18.2258 68.5156 14.9194 67.0508C14.9194 67.0508 10.3024 63.9844 15.2419 64.043C15.2419 64.043 20.2621 64.4336 23.0242 69.082C27.4395 76.6211 34.8387 74.4531 37.7218 73.1641C38.1855 70.0391 39.496 67.8711 40.9476 66.582C29.6774 65.3711 18.3065 63.7891 18.3065 45C18.3065 39.6289 19.8387 36.9336 23.0645 33.4961C22.5403 32.2266 20.8266 26.9922 23.5887 20.2344C27.8024 18.9648 37.5 25.5078 37.5 25.5078C41.5323 24.4141 45.8669 23.8477 50.1613 23.8477C54.4556 23.8477 58.7903 24.4141 62.8226 25.5078C62.8226 25.5078 72.5202 18.9453 76.7339 20.2344C79.496 27.0117 77.7823 32.2266 77.2581 33.4961C80.4839 36.9531 82.4597 39.6484 82.4597 45C82.4597 63.8477 70.5847 65.3516 59.3145 66.582C61.1694 68.125 62.7419 71.0547 62.7419 75.6445C62.7419 82.2266 62.6814 90.3711 62.6814 91.9727C62.6814 93.2422 63.6089 94.7852 66.1694 94.3359C86.3307 87.8516 100 69.3164 100 47.6563C100 20.5664 77.3186 0 49.3548 0ZM19.5968 67.3633C19.3347 67.5586 19.3952 68.0078 19.7379 68.3789C20.0605 68.6914 20.5242 68.8281 20.7863 68.5742C21.0484 68.3789 20.9879 67.9297 20.6452 67.5586C20.3226 67.2461 19.8589 67.1094 19.5968 67.3633ZM17.4194 65.7813C17.2782 66.0352 17.4798 66.3477 17.8831 66.543C18.2056 66.7383 18.6089 66.6797 18.75 66.4063C18.8911 66.1523 18.6895 65.8398 18.2863 65.6445C17.8831 65.5273 17.5605 65.5859 17.4194 65.7813ZM23.9516 72.7344C23.629 72.9883 23.75 73.5742 24.2137 73.9453C24.6774 74.3945 25.2621 74.4531 25.5242 74.1406C25.7863 73.8867 25.6653 73.3008 25.2621 72.9297C24.8186 72.4805 24.2137 72.4219 23.9516 72.7344ZM21.6532 69.8633C21.3306 70.0586 21.3306 70.5664 21.6532 71.0156C21.9758 71.4648 22.5202 71.6602 22.7823 71.4648C23.1048 71.2109 23.1048 70.7031 22.7823 70.2539C22.5 69.8047 21.9758 69.6094 21.6532 69.8633Z" fill="#694E4E"/>
</svg>
