<svg width="108" height="108" viewBox="0 0 108 108" fill="none" xmlns="http://www.w3.org/2000/svg">
<g clip-path="url(#clip0_2_38)" filter="url(#filter0_d_2_38)">
<rect width="100" height="100" transform="translate(4)" fill="#DEB887"/>
<path d="M93.721 24.9218C93.7847 26.0155 93.7847 27.1094 93.7847 28.2031C93.7847 61.5623 73.1627 100 35.4722 100C23.8604 100 13.0737 95.8593 4 88.672C5.64981 88.9063 7.23595 88.9843 8.94923 88.9843C18.5303 88.9843 27.3503 85 34.3935 78.2033C25.3833 77.9687 17.8325 70.7033 15.2309 60.703C16.5 60.9373 17.769 61.0937 19.1016 61.0937C20.9417 61.0937 22.7819 60.781 24.495 60.2343C15.1041 57.8903 8.06077 47.7343 8.06077 35.4687V35.1563C10.7891 37.0313 13.962 38.2033 17.3247 38.3593C11.8043 33.828 8.1877 26.0936 8.1877 17.3436C8.1877 12.6562 9.20277 8.3593 10.9795 4.60927C21.0684 19.9217 36.2335 29.9216 53.2383 31.0155C52.9213 29.1405 52.731 27.1876 52.731 25.2344C52.731 11.328 61.868 0 73.226 0C79.127 0 84.4567 3.04687 88.2007 7.96873C92.8323 6.87503 97.274 4.76557 101.208 1.87501C99.685 7.73453 96.4493 12.6564 92.198 15.7812C96.3223 15.2346 100.32 13.828 104 11.8751C101.209 16.8749 97.7187 21.3278 93.721 24.9218Z" fill="white"/>
<path d="M93.721 24.9218C93.7847 26.0155 93.7847 27.1094 93.7847 28.2031C93.7847 61.5623 73.1627 100 35.4722 100C23.8604 100 13.0737 95.8593 4 88.672C5.64981 88.9063 7.23595 88.9843 8.94923 88.9843C18.5303 88.9843 27.3503 85 34.3935 78.2033C25.3833 77.9687 17.8325 70.7033 15.2309 60.703C16.5 60.9373 17.769 61.0937 19.1016 61.0937C20.9417 61.0937 22.7819 60.781 24.495 60.2343C15.1041 57.8903 8.06077 47.7343 8.06077 35.4687V35.1563C10.7891 37.0313 13.962 38.2033 17.3247 38.3593C11.8043 33.828 8.1877 26.0936 8.1877 17.3436C8.1877 12.6562 9.20277 8.3593 10.9795 4.60927C21.0684 19.9217 36.2335 29.9216 53.2383 31.0155C52.9213 29.1405 52.731 27.1876 52.731 25.2344C52.731 11.328 61.868 0 73.226 0C79.127 0 84.4567 3.04687 88.2007 7.96873C92.8323 6.87503 97.274 4.76557 101.208 1.87501C99.685 7.73453 96.4493 12.6564 92.198 15.7812C96.3223 15.2346 100.32 13.828 104 11.8751C101.209 16.8749 97.7187 21.3278 93.721 24.9218Z" stroke="white"/>
</g>
<defs>
<filter id="filter0_d_2_38" x="0" y="0" width="108" height="108" filterUnits="userSpaceOnUse" color-interpolation-filters="sRGB">
<feFlood flood-opacity="0" result="BackgroundImageFix"/>
<feColorMatrix in="SourceAlpha" type="matrix" values="0 0 0 0 0 0 0 0 0 0 0 0 0 0 0 0 0 0 127 0" result="hardAlpha"/>
<feOffset dy="4"/>
<feGaussianBlur stdDeviation="2"/>
<feComposite in2="hardAlpha" operator="out"/>
<feColorMatrix type="matrix" values="0 0 0 0 0 0 0 0 0 0 0 0 0 0 0 0 0 0 0.25 0"/>
<feBlend mode="normal" in2="BackgroundImageFix" result="effect1_dropShadow_2_38"/>
<feBlend mode="normal" in="SourceGraphic" in2="effect1_dropShadow_2_38" result="shape"/>
</filter>
<clipPath id="clip0_2_38">
<rect width="100" height="100" fill="white" transform="translate(4)"/>
</clipPath>
</defs>
</svg>
